<svg width="24" height="24" viewBox="0 0 24 24" fill="none" xmlns="http://www.w3.org/2000/svg">
<path fill-rule="evenodd" clip-rule="evenodd" d="M13.026 2.27002C13.2409 2.19847 13.4693 2.17653 13.6939 2.20586C13.9185 2.23518 14.1336 2.31499 14.3229 2.43931C14.5123 2.56363 14.6711 2.72923 14.7873 2.92367C14.9035 3.11811 14.9742 3.33636 14.994 3.56202L15 3.69402V9.18002L18.794 9.94002C19.1102 10.003 19.3976 10.1662 19.6138 10.4054C19.8299 10.6446 19.9632 10.9471 19.994 11.268L20 11.41V19H21C21.2549 19.0003 21.5 19.0979 21.6854 19.2729C21.8707 19.4478 21.9822 19.687 21.9972 19.9414C22.0121 20.1959 21.9293 20.4464 21.7657 20.6418C21.6021 20.8373 21.3701 20.9629 21.117 20.993L21 21H2.99999C2.74511 20.9997 2.49996 20.9021 2.31462 20.7272C2.12929 20.5522 2.01776 20.3131 2.00282 20.0586C1.98788 19.8042 2.07067 19.5536 2.23426 19.3582C2.39785 19.1627 2.62989 19.0371 2.88299 19.007L2.99999 19H3.99999V6.36002C3.99999 5.76002 4.35599 5.22402 4.89799 4.98602L5.02599 4.93702L13.026 2.27002ZM13 4.38802L5.99999 6.72102V19H13V4.38802ZM15 11.221V19H18V11.82L15 11.221Z" fill="white"/>
</svg>
