<svg width="24" height="24" viewBox="0 0 24 24" fill="none" xmlns="http://www.w3.org/2000/svg">
<path d="M6.77522 8.5753C6.83096 8.51942 6.89717 8.47509 6.97006 8.44484C7.04296 8.41459 7.1211 8.39903 7.20002 8.39903C7.27895 8.39903 7.35709 8.41459 7.42999 8.44484C7.50288 8.47509 7.56909 8.51942 7.62482 8.5753L9.42482 10.3753C9.48061 10.4311 9.52486 10.4973 9.55505 10.5702C9.58524 10.6431 9.60078 10.7212 9.60078 10.8001C9.60078 10.879 9.58524 10.9571 9.55505 11.03C9.52486 11.1029 9.48061 11.1691 9.42482 11.2249C9.36904 11.2807 9.30281 11.3249 9.22993 11.3551C9.15704 11.3853 9.07892 11.4009 9.00002 11.4009C8.92113 11.4009 8.84301 11.3853 8.77012 11.3551C8.69724 11.3249 8.63101 11.2807 8.57522 11.2249L7.80002 10.4485V13.8001C7.80002 13.9592 7.73681 14.1118 7.62429 14.2244C7.51177 14.3369 7.35915 14.4001 7.20002 14.4001C7.04089 14.4001 6.88828 14.3369 6.77576 14.2244C6.66324 14.1118 6.60002 13.9592 6.60002 13.8001V10.4485L5.82482 11.2249C5.76904 11.2807 5.70281 11.3249 5.62993 11.3551C5.55704 11.3853 5.47892 11.4009 5.40002 11.4009C5.32113 11.4009 5.24301 11.3853 5.17012 11.3551C5.09724 11.3249 5.03101 11.2807 4.97522 11.2249C4.91944 11.1691 4.87519 11.1029 4.845 11.03C4.81481 10.9571 4.79927 10.879 4.79927 10.8001C4.79927 10.7212 4.81481 10.6431 4.845 10.5702C4.87519 10.4973 4.91944 10.4311 4.97522 10.3753L6.77522 8.5753ZM19.0248 12.4249L17.2248 14.2249C17.1691 14.2808 17.1029 14.3251 17.03 14.3554C16.9571 14.3856 16.8789 14.4012 16.8 14.4012C16.7211 14.4012 16.643 14.3856 16.5701 14.3554C16.4972 14.3251 16.431 14.2808 16.3752 14.2249L14.5752 12.4249C14.4626 12.3122 14.3993 12.1594 14.3993 12.0001C14.3993 11.8408 14.4626 11.688 14.5752 11.5753C14.6879 11.4626 14.8407 11.3993 15 11.3993C15.1594 11.3993 15.3122 11.4626 15.4248 11.5753L16.2 12.3517V9.0001C16.2 8.84097 16.2632 8.68836 16.3758 8.57583C16.4883 8.46331 16.6409 8.4001 16.8 8.4001C16.9592 8.4001 17.1118 8.46331 17.2243 8.57583C17.3368 8.68836 17.4 8.84097 17.4 9.0001V12.3517L18.1752 11.5753C18.2879 11.4626 18.4407 11.3993 18.6 11.3993C18.7594 11.3993 18.9122 11.4626 19.0248 11.5753C19.1375 11.688 19.2008 11.8408 19.2008 12.0001C19.2008 12.1594 19.1375 12.3122 19.0248 12.4249ZM6.00002 3.6001C5.04525 3.6001 4.12957 3.97938 3.45444 4.65451C2.77931 5.32964 2.40002 6.24532 2.40002 7.2001V15.6001C2.40002 16.5549 2.77931 17.4706 3.45444 18.1457C4.12957 18.8208 5.04525 19.2001 6.00002 19.2001H18C18.9548 19.2001 19.8705 18.8208 20.5456 18.1457C21.2207 17.4706 21.6 16.5549 21.6 15.6001V7.2001C21.6 6.24532 21.2207 5.32964 20.5456 4.65451C19.8705 3.97938 18.9548 3.6001 18 3.6001H6.00002ZM11.4 4.8001V18.0001H6.00002C5.3635 18.0001 4.75306 17.7472 4.30297 17.2972C3.85288 16.8471 3.60002 16.2366 3.60002 15.6001V7.2001C3.60002 6.56358 3.85288 5.95313 4.30297 5.50304C4.75306 5.05295 5.3635 4.8001 6.00002 4.8001H11.4ZM12.6 18.0001V4.8001H18C18.6365 4.8001 19.247 5.05295 19.6971 5.50304C20.1472 5.95313 20.4 6.56358 20.4 7.2001V15.6001C20.4 16.2366 20.1472 16.8471 19.6971 17.2972C19.247 17.7472 18.6365 18.0001 18 18.0001H12.6Z" fill="#969F9A"/>
</svg>
