<svg width="24" height="24" viewBox="0 0 24 24" fill="none" xmlns="http://www.w3.org/2000/svg">
<g clip-path="url(#clip0_244_772)">
<path d="M13 21V14H11V21H8V8H7.41421L12 3.41421L17 8.41421L17 8.5H16V21H13ZM6 10.7324V21H3V11H5C5.36429 11 5.70583 10.9026 6 10.7324ZM18 21V11.2324C18.2942 11.4026 18.6357 11.5 19 11.5H21V21H18Z" stroke="white" stroke-width="2"/>
<path d="M11 14C11 13.4477 11.4477 13 12 13V13C12.5523 13 13 13.4477 13 14V15H11V14Z" fill="white"/>
</g>
<defs>
<clipPath id="clip0_244_772">
<rect width="20" height="20" fill="white" transform="translate(2 2)"/>
</clipPath>
</defs>
</svg>
