<svg width="24" height="24" viewBox="0 0 24 24" fill="none" xmlns="http://www.w3.org/2000/svg">
<g clip-path="url(#clip0_244_928)">
<path d="M9 8C9 7.44772 9.44772 7 10 7V7C10.5523 7 11 7.44772 11 8V8C11 8.55228 10.5523 9 10 9V9C9.44772 9 9 8.55228 9 8V8ZM13 8C13 7.44772 13.4477 7 14 7V7C14.5523 7 15 7.44772 15 8V8C15 8.55228 14.5523 9 14 9V9C13.4477 9 13 8.55228 13 8V8ZM9 12C9 11.4477 9.44772 11 10 11V11C10.5523 11 11 11.4477 11 12V12C11 12.5523 10.5523 13 10 13V13C9.44772 13 9 12.5523 9 12V12ZM13 12C13 11.4477 13.4477 11 14 11V11C14.5523 11 15 11.4477 15 12V12C15 12.5523 14.5523 13 14 13V13C13.4477 13 13 12.5523 13 12V12Z" fill="white"/>
<path d="M21 21H3C2.44772 21 2 20.5523 2 20V12C2 11.4477 2.44772 11 3 11H4C4.55228 11 5 10.5523 5 10V5.5C5 5.22386 4.77614 5 4.5 5C4.22386 5 4 4.77614 4 4.5V4C4 3.44772 4.44772 3 5 3H19C19.5523 3 20 3.44772 20 4V4.5C20 4.77614 19.7761 5 19.5 5C19.2239 5 19 5.22386 19 5.5V10C19 10.5523 19.4477 11 20 11H21C21.5523 11 22 11.4477 22 12V20C22 20.5523 21.5523 21 21 21Z" stroke="white"/>
<path d="M16 5H8C7.44772 5 7 5.44772 7 6V18C7 18.5523 7.44772 19 8 19H9C9.55228 19 10 18.5523 10 18V16C10 15.4477 10.4477 15 11 15H13C13.5523 15 14 15.4477 14 16V18C14 18.5523 14.4477 19 15 19H16C16.5523 19 17 18.5523 17 18V6C17 5.44772 16.5523 5 16 5Z" stroke="white"/>
<path d="M4 3H20V5H4V3Z" fill="white"/>
<path d="M2 19H22V21H2V19Z" fill="white"/>
<path d="M5 19L5 5L7 5L7 19H5Z" fill="white"/>
<path d="M17 19V5L19 5L19 19H17Z" fill="white"/>
<path d="M19 19L19 11H22V19H19Z" fill="white"/>
<path d="M2 19L2 11H5V19H2Z" fill="white"/>
<path d="M10 20V15H14V20H10Z" fill="white"/>
</g>
<defs>
<clipPath id="clip0_244_928">
<rect width="22" height="20" fill="white" transform="translate(1 2)"/>
</clipPath>
</defs>
</svg>
