<svg width="24" height="24" viewBox="0 0 24 24" fill="none" xmlns="http://www.w3.org/2000/svg">
<path d="M12 22C10.7833 21.85 9.575 21.5207 8.375 21.012C7.175 20.5033 6.10433 19.7743 5.163 18.825C4.221 17.875 3.45833 16.675 2.875 15.225C2.29167 13.775 2 12.0333 2 10V9H3C3.85 9 4.725 9.10833 5.625 9.325C6.525 9.54167 7.36667 9.86667 8.15 10.3C8.35 8.86667 8.80433 7.39567 9.513 5.887C10.2217 4.37833 11.0507 3.08267 12 2C12.95 3.08333 13.7793 4.37933 14.488 5.888C15.1967 7.39667 15.6507 8.86733 15.85 10.3C16.6333 9.86667 17.475 9.54167 18.375 9.325C19.275 9.10833 20.15 9 21 9H22V10C22 12.0333 21.7083 13.775 21.125 15.225C20.5417 16.675 19.779 17.875 18.837 18.825C17.8957 19.775 16.829 20.5043 15.637 21.013C14.445 21.5217 13.2327 21.8507 12 22ZM11.95 19.95C11.7667 17.1833 10.9457 15.0917 9.487 13.675C8.02833 12.2583 6.216 11.3833 4.05 11.05C4.23333 13.9 5.07933 16.025 6.588 17.425C8.09667 18.825 9.884 19.6667 11.95 19.95ZM12 13.6C12.25 13.2333 12.5543 12.854 12.913 12.462C13.2717 12.07 13.6173 11.7327 13.95 11.45C13.9167 10.5 13.7293 9.50833 13.388 8.475C13.0467 7.44167 12.584 6.43333 12 5.45C11.4167 6.43333 10.954 7.44167 10.612 8.475C10.27 9.50833 10.0827 10.5 10.05 11.45C10.3833 11.7333 10.7333 12.071 11.1 12.463C11.4667 12.855 11.7667 13.234 12 13.6ZM13.95 19.5C14.5667 19.3 15.2083 19.0083 15.875 18.625C16.5417 18.2417 17.1627 17.7207 17.738 17.062C18.3127 16.404 18.8043 15.5833 19.213 14.6C19.6217 13.6167 19.8673 12.4333 19.95 11.05C18.3833 11.2833 17.0083 11.8043 15.825 12.613C14.6417 13.4217 13.7333 14.4507 13.1 15.7C13.3 16.2333 13.471 16.8167 13.613 17.45C13.755 18.0833 13.8673 18.7667 13.95 19.5Z" fill="#969F9A"/>
</svg>
