<svg width="24" height="24" viewBox="0 0 24 24" fill="none" xmlns="http://www.w3.org/2000/svg">
<path d="M3 13.4651V16.3953C3 16.8394 3.18061 17.2653 3.5021 17.5793C3.82359 17.8934 4.25963 18.0698 4.71429 18.0698H5.42857C5.98086 18.0698 6.42857 18.5175 6.42857 19.0698V21M21 13.4651V16.3953C21 16.8394 20.8194 17.2653 20.4979 17.5793C20.1764 17.8934 19.7404 18.0698 19.2857 18.0698H18.5714C18.0191 18.0698 17.5714 18.5175 17.5714 19.0698V21M12 8.86047V14.3023M6 15.5581H18M12 15.5581V21M20.9263 7.18605V7.18605C20.967 7.18605 21 7.21905 21 7.25976V8.02326C21 8.48563 20.6252 8.86047 20.1628 8.86047H3.83721C3.37483 8.86047 3 8.48563 3 8.02326V7.25976C3 7.21905 3.033 7.18605 3.07371 7.18605V7.18605C3.30978 7.18606 3.54543 7.16701 3.77829 7.12912L4.11771 7.07386C7.01046 6.60276 9.67242 5.23833 11.7129 3.18084L11.8173 3.07594C11.8657 3.02733 11.9314 3 12 3V3C12.0686 3 12.1343 3.02733 12.1827 3.07594L12.2871 3.18084C14.3276 5.23833 16.9895 6.60276 19.8823 7.07386L20.2217 7.12912C20.4546 7.16701 20.6902 7.18606 20.9263 7.18605Z" stroke="#969F9A" stroke-width="2"/>
</svg>
